<svg xmlns="http://www.w3.org/2000/svg" width="475.125" height="472" style=""><rect id="backgroundrect" width="100%" height="100%" x="0" y="0" fill="none" stroke="none"/>

 <g style="">
  <title>background</title>
  <rect fill="none" id="canvas_background" height="402" width="582" y="-1" x="-1"/>
 </g>
 <g style="" class="currentLayer">
  <title>Layer 1</title>
  
  
  
  
  
  
  
  <g id="svg_21"/>
  <g id="svg_22"/>
  <g id="svg_23"/>
  <g id="svg_24"/>
  <g id="svg_25"/>
  <g id="svg_26"/>
  <g id="svg_27"/>
  <g id="svg_28"/>
  <g id="svg_29"/>
  <g id="svg_30"/>
  <g id="svg_31"/>
  <g id="svg_32"/>
  <g id="svg_33"/>
  <g id="svg_34"/>
  <g id="svg_35"/>
 <g class="" id="svg_2"><path id="svg_1" fill="#FFECC5" d="m7.23722200769549,186.93564433083247 c6.7593817794274145,-31.59882963288008 19.936335691481645,-61.47196861449725 38.71282291853881,-87.76954825711049 c68.08156863858507,-95.29960197426806 195.83900501353546,-126.10471632244264 299.87075530550703,-72.30490206478412 c39.15960781267142,20.110440979739618 71.8261125220747,50.895072352825046 94.22168541020028,88.79369701156918 c17.482219238609986,29.174157456699103 28.353558267189076,61.82529993478549 31.851026263665528,95.65549366644244 c4.661157018730152,43.985908818058036 -3.183822440423479,88.3942789973303 -22.633687473537236,128.12100918278318 c-20.00418554646453,41.242470342051796 -51.704149868847395,75.6858731404409 -91.14923914682419,99.03518455615617 c-63.76094108071242,38.0688893891729 -141.77291207971766,43.728591443500285 -210.36015416581668,15.25981644143461 c-19.83520100197885,-8.062611069476104 -38.44910461426569,-18.8520181976985 -55.30403274076974,-32.055856014557264 c-22.207385554493808,-17.352920458359574 -41.08500747105377,-38.5886448820607 -55.713692242553215,-62.67790377287236 l-1.5362231316880481,-2.457957010700877 c-30.35704926809891,-50.952680720263324 -40.34377981001428,-111.49395415414624 -27.959260996722477,-169.49661886291463 " class=""/><path id="svg_3" fill="#FFECC5" d="m92.44639837865923,421.6705388527662 c-22.207385554493808,-17.352920458359574 -41.08500747105377,-38.5886448820607 -55.713692242553215,-62.67790377287236 c25.91096348780507,-27.03752711770965 65.13586078357325,-38.507993167647065 100.2641630615066,-54.99678811443212 c33.284834519907704,-15.66947594321809 61.756169893859536,-50.49053359481384 100.67382256329009,-58.478893879591695 c36.459695658729665,-7.578700782994369 77.11840121074002,-0.10241487544587043 116.03605388017057,-2.5603718861467466 c37.99591879041772,-2.457957010700877 80.08843259867024,-32.567930391786625 118.18676626453382,-31.64619651277379 c4.661157018730152,43.985908818058036 -3.183822440423479,88.3942789973303 -22.633687473537236,128.12100918278318 c-24.88681473334638,-5.120743772293495 -37.99591879041772,-11.265636299045688 -61.346510392076055,-11.982540427166775 c-26.832697366817907,-0.8193190035669595 -41.785269181914906,6.452137153089803 -65.75035003624845,10.241487544586986 c-26.525452740480294,4.199009893280666 -73.63629544558043,5.120743772293495 -96.4748126700094,13.621178434300694 c-25.194059359683983,9.422168541020026 -40.86353530290208,23.65783622799594 -61.244095516630175,36.459695658729665 c-23.145761850766593,14.645327188759389 -55.406447616215594,17.308113950352006 -71.99765743844652,33.899323772582925 l0,0 z" class=""/><path id="svg_4" fill="#8A4325" d="m421.1981485599015,383.77703493779444 c-65.57880511987662,81.33405352128062 -176.8679295231311,109.8015483374032 -273.44771744047256,69.94935992952912 c22.940932099874853,-13.723593309746564 64.31654178000628,-21.19987921729506 92.99270690484984,-31.543781637327918 c28.06167587216834,-10.139072669141116 53.76780960908168,-26.832697366817907 84.79951686918024,-31.64619651277379 c29.700313879302264,-4.506254519618276 64.9310310326815,-2.867616512484357 95.65549366644244,-6.7593817794274145 l0,0 z" class=""/><path id="svg_5" fill="#DB8F35" d="m387.9133140399938,327.4488534425661 c23.35059160165833,0.7169041281210916 36.459695658729665,6.861796654873282 61.346510392076055,11.982540427166775 c-7.6401497082618945,15.798774723468501 -17.05463713362348,30.677095753867246 -28.06167587216834,44.34564106806166 c-30.72446263376096,3.8917652669430556 -65.95517978714021,2.253127259809138 -95.65549366644244,6.7593817794274145 c-31.031707260098568,4.813499145955884 -56.73784099701191,21.507123843632673 -84.79951686918024,31.64619651277379 c-28.67616512484356,10.343902420032858 -70.051774804975,17.820188327581356 -92.99270690484984,31.543781637327918 c-19.83520100197885,-8.062611069476104 -38.44910461426569,-18.8520181976985 -55.30403274076974,-32.055856014557264 c16.59120982223092,-16.59120982223092 48.851895587679934,-19.253996583823533 71.99765743844652,-33.899323772582925 c20.380560213728103,-12.801859430733732 36.0500361569462,-27.03752711770965 61.244095516630175,-36.459695658729665 c22.83851722442898,-8.5004346620072 69.94935992952912,-9.422168541020026 96.4748126700094,-13.621178434300694 c23.96508085433355,-3.7893503914971864 38.91765266943056,-11.060806548153945 65.75035003624845,-10.241487544586986 l0,0 z" class=""/><g id="svg_6" class="">
   <path id="svg_7" fill="#FFECC5" d="m117.2307982365597,33.620575788365294 c69.90327323557848,-41.62140538120151 156.34910922755105,-44.17793670951903 228.59000199518158,-6.7593817794274145 c-17.439973102488562,-2.6487047162188113 -35.01436572899984,-4.3244681157018565 -52.6412459791771,-5.018328896847624 c-26.832697366817907,-0.7169041281210916 -46.9060129542084,11.572880925383297 -70.87109380854196,15.36223131688048 c-31.091875999423017,6.194819778532054 -61.63967297303986,14.859118241252643 -91.35406889771592,25.91096348780507 c-25.194059359683983,9.422168541020026 -64.62378640634388,23.145761850766593 -85.00434662007198,36.0500361569462 c18.914747308909096,-26.593302595463186 43.19731427712484,-48.92230581454896 71.28075331032542,-65.54552028535672 l0,0 z"/>
   <path id="svg_8" fill="#FFECC5" d="m196.39749695621717,83.39420525505804 c34.923472527041625,-7.4762859075485 73.94354007191805,7.783530533886111 109.1742572252973,4.711084270510015 c37.48384441318838,-3.277276014267836 58.99096825682105,-24.989229608792247 92.07097302583703,-24.989229608792247 c16.56560610336945,15.403197267058827 30.842239740523706,33.094086814389776 42.39975843459012,52.538831103731226 c11.133777146909129,18.561415988620837 19.61372883382715,38.589925068003765 25.194059359683983,59.50304263405039 c-49.15914021401753,-9.012509039236551 -58.99096825682105,5.223158647739363 -117.265032385521,10.241487544586986 c-37.3814295377425,3.277276014267836 -82.85363423570871,-10.139072669141116 -124.53648854217776,0.20482975089174038 c-40.658705552010346,9.934242918249375 -74.04595494736391,42.50217331003599 -109.1742572252973,59.19579800771278 c-42.09251380825253,20.073315587390496 -69.43728555229976,25.398889110575727 -102.21004569497813,59.19579800771278 c-11.489668839083528,-37.948551910524 -13.146229449420472,-78.19375740292162 -4.813499145955884,-116.95778775918339 l0,-0.10241487544587043 c1.7410528825797906,-2.0482975089173974 27.856846121276607,-33.38724939535358 93.19753665574157,-52.23158647739363 c32.97758989357011,-9.5245834164659 59.91270213583386,-43.62873693994056 95.96273829278006,-51.30985259838079 l0,0 z"/>
  </g><path id="svg_9" fill="#C06515" d="m136.9968691976126,303.9958469654618 c-35.128302277933365,16.488794946785053 -74.35319957370152,27.959260996722477 -100.2641630615066,54.99678811443212 l-1.5362231316880481,-2.457957010700877 c-9.824146927145065,-16.505437364045 -17.597435973486597,-34.148960031482225 -23.145761850766593,-52.538831103731226 c32.77276014267836,-33.79690889713706 60.11753188672562,-39.122482420322285 102.21004569497813,-59.19579800771278 c35.128302277933365,-16.69362469767679 68.51555167328695,-49.26155508946341 109.1742572252973,-59.19579800771278 c41.68285430646903,-10.343902420032858 87.15505900443526,3.072446263376097 124.53648854217776,-0.20482975089174038 c58.274064128699955,-5.018328896847624 68.10589217150346,-19.253996583823533 117.265032385521,-10.241487544586986 c3.174861138821966,11.854521832859437 5.401104493826564,23.944597879244377 6.6569669039815444,36.15245103239206 c-38.0983336658636,-0.9217338790128294 -80.1908474741161,29.188239502072914 -118.18676626453382,31.64619651277379 c-38.91765266943056,2.457957010700877 -79.57635822144088,-5.018328896847624 -116.03605388017057,2.5603718861467466 c-38.91765266943056,7.9883602847778485 -67.38898804338238,42.8094179363736 -100.67382256329009,58.478893879591695 l0,0 z" class=""/><path id="svg_10" fill="#DB8F35" d="m7.23722200769549,186.93564433083247 c6.7593817794274145,-31.59882963288008 19.936335691481645,-61.47196861449725 38.71282291853881,-87.76954825711049 c20.380560213728103,-12.904274306179603 59.810287260388,-26.627867615926167 85.00434662007198,-36.0500361569462 c29.714395924676065,-11.051845246552434 60.2621928982929,-19.716143709273023 91.35406889771592,-25.91096348780507 c23.96508085433355,-3.7893503914971864 44.03839644172403,-16.07913544500157 70.87109380854196,-15.36223131688048 c17.62688025017728,0.6938607811457754 35.20127287668854,2.3696241806288145 52.6412459791771,5.018328896847624 c18.821293735064735,9.706369820382317 36.25230553595179,21.900140928156198 51.82192697561014,36.25486590783794 c-33.080004769015964,0 -54.58712861264865,21.71195359452441 -92.07097302583703,24.989229608792247 c-35.23071715337924,3.072446263376097 -74.25078469825564,-12.187370178058515 -109.1742572252973,-4.711084270510015 c-36.0500361569462,7.681115658440243 -62.98514839920997,41.785269181914906 -95.96273829278006,51.30985259838079 c-65.34069053446495,18.844337082040052 -91.45648377316178,50.18328896847624 -93.19753665574157,52.23158647739363 l0,0 z" class=""/></g></g>
</svg>