<svg xmlns="http://www.w3.org/2000/svg" width="468.2879943847656" height="468.2879943847656" style=""><rect id="backgroundrect" width="100%" height="100%" x="0" y="0" fill="none" stroke="none"/>

 <g style="">
  <title>background</title>
  <rect fill="none" id="canvas_background" height="402" width="582" y="-1" x="-1"/>
 </g>
 <g style="" class="currentLayer">
  <title>Layer 1</title>
  
  
  
  
  
  
  
  <g id="svg_13"/>
  <g id="svg_14"/>
  <g id="svg_15"/>
  <g id="svg_16"/>
  <g id="svg_17"/>
  <g id="svg_18"/>
  <g id="svg_19"/>
  <g id="svg_20"/>
  <g id="svg_21"/>
  <g id="svg_22"/>
  <g id="svg_23"/>
  <g id="svg_24"/>
  <g id="svg_25"/>
  <g id="svg_26"/>
  <g id="svg_27"/>
 <g class=""><path id="svg_1" fill="#74C6FF" d="m33.4407522516037,353.74279520588357 c-8.690458487033844,-14.543760281324387 -15.740824604034424,-30.00658161211014 -21.021617374420163,-46.10538303375244 c-40.49961840057373,-122.43568814992905 25.924122585773468,-254.52024789786338 148.35854131436346,-295.0185968770981 c62.78684885001182,-20.769002527952196 131.43588544368745,-13.93951572394371 188.90005061912535,18.792513503074645 c20.116519959688187,11.330854872226716 38.399995505809784,25.64231104850769 54.229679603576656,42.44944957733154 c11.794193660974504,12.502530768156053 22.18059905695915,26.260519240617754 30.973880672454833,41.0276976776123 c12.922709231376647,21.596665241003038 22.21995111846924,45.164741821527485 27.52105463027954,69.76739679336548 c4.602921775341034,20.89086697649956 6.244283566713333,42.32631570744515 4.874577941894531,63.67417436599731 c-7.700309842586517,128.72947914886475 -118.29864400601387,226.84305444288256 -247.02939257621765,219.14274460029603 c-22.749299816846847,-1.3608196754455568 -45.1761666135788,-6.044984416484834 -66.56845501899718,-13.902702505111694 " class=""/><path id="svg_2" fill="#0C6BC3" d="m467.278189080217,248.33004721241434 c-1.6362841060161593,27.269709205150605 -8.029089969396592,54.04307466673851 -18.88898952484131,79.11033784866333 c-125.88978361344338,-32.926250691890715 -259.7896158761978,3.634353293657303 -351.47738035202025,95.96825323104858 c-22.04604039502144,-16.031522090673445 -41.121634856700894,-35.79387349677086 -56.362307453155516,-58.39338159561157 c111.64052908277512,-111.55040016770363 273.8598819980621,-155.90779001760484 426.72867733001715,-116.68520948410034 l0,0 z" class=""/><path id="svg_3" fill="#168DE2" d="m114.68371794984586,33.645510354809375 c72.19579981493949,-43.07400487613678 161.99339591693877,-43.92832543730735 234.99527828216554,-2.2341815567016603 c-111.87410260915756,0.9190610494613645 -221.58765009927748,30.910409605503084 -318.3708718299866,87.03152700424195 c19.96165055632591,-35.02206532263756 48.69627198672294,-64.24541396856308 83.37559354782105,-84.79734544754028 l0,0 z" class=""/><path id="svg_4" fill="#74C6FF" d="m403.90867583558804,73.86077837543925 c-15.842378311157226,-1.2186444854736331 -31.786310329437256,-2.0310741424560548 -47.93334976196289,-2.0310741424560548 c-125.15351923680305,-0.09901486444473277 -247.26550494527817,38.57009796524048 -349.547859916687,110.69354076385498 c5.073877092123031,-22.475104807615278 13.458405036449433,-44.07050062727928 24.88065824508667,-64.08038919448852 c96.78322173070909,-56.12111739873886 206.49676922082898,-86.11246595478057 318.3708718299866,-87.03152700424195 c20.116519959688187,11.330854872226716 38.399995505809784,25.64231104850769 54.229679603576656,42.44944957733154 z" class=""/><path id="svg_5" fill="#003170" d="m434.88255650804297,114.88847605305153 c12.922709231376647,21.596665241003038 22.21995111846924,45.164741821527485 27.52105463027954,69.76739679336548 c-161.0667183394432,-34.54349347782135 -328.87533341050147,11.3194300801754 -449.9844762611389,122.98153932571411 c-13.450788508415222,-40.36252089595794 -15.523753555059432,-83.65105797839165 -5.991668720245361,-125.11416717529298 c102.28235497140884,-72.1234427986145 224.39434067988395,-110.79255562829972 349.547859916687,-110.69354076385498 c16.147039432525634,0 32.09097145080567,0.8124296569824226 47.93334976196289,2.0310741424560548 c11.794193660974504,12.502530768156053 22.18059905695915,26.260519240617754 30.973880672454833,41.0276976776123 l0,0 z" class=""/><g id="svg_6" class="">
   <path id="svg_7" fill="#168DE2" d="m462.4036111383224,184.65587284641703 c4.602921775341034,20.89086697649956 6.244283566713333,42.32631570744515 4.874577941894531,63.67417436599731 c-152.86879533195497,-39.222580533504484 -315.088148247242,5.134809316396713 -426.72867733001715,116.68520948410034 c-2.4372889709472654,-3.6559334564209003 -4.874577941894531,-7.413420619964599 -7.108759498596191,-11.272461490631105 c-8.690458487033844,-14.543760281324387 -15.740824604034424,-30.00658161211014 -21.021617374420163,-46.10538303375244 c121.10914285063744,-111.6621092455387 288.91775792169574,-157.52503280353545 449.9844762611389,-122.98153932571411 z"/>
   <path id="svg_8" fill="#168DE2" d="m448.38919955537574,327.4403850610777 c-8.563516353130339,19.728077029943467 -19.806781152963637,38.18165503549576 -33.4111696434021,54.83900184631348 c-93.45860724377633,-18.50562428045273 -190.1872438569069,7.884375936746598 -261.29768842697143,71.29070240020752 l-0.10155370712280275,0 c-20.186338133335113,-7.4007264065742495 -39.254316066980365,-17.551019433498382 -56.66696857452393,-30.161451015472416 c91.68776447582245,-92.33389993739128 225.5875967385769,-128.8945039229393 351.47738035202025,-95.96825323104858 z"/>
  </g><path id="svg_9" fill="#74C6FF" d="m355.9753260736252,376.4908256013914 c19.809319995641708,0.010155370712280285 39.569132559061046,1.9485617554187777 59.00270383834838,5.788561305999757 c-63.0648521232605,76.92947198820114 -167.9012828288078,105.53207359933853 -261.29768842697143,71.29070240020752 c55.64127613258362,-49.72323385000229 127.67332059478758,-77.16939262127876 202.29498458862307,-77.07926370620727 z" class=""/></g></g>
</svg>