<svg width="468.288" height="468.288" xmlns="http://www.w3.org/2000/svg">

 <g>
  <title>background</title>
  <rect fill="none" id="canvas_background" height="402" width="582" y="-1" x="-1"/>
 </g>
 <g>
  <title>Layer 1</title>
  <path id="svg_1" fill="#74C6FF" d="m81.92,330.08c-6.846,-11.457 -12.4,-23.638 -16.56,-36.32c-31.904,-96.45 20.422,-200.501 116.871,-232.404c49.461,-16.361 103.54,-10.981 148.808,14.804c15.847,8.926 30.25,20.2 42.72,33.44c9.291,9.849 17.473,20.687 24.4,32.32c10.18,17.013 17.504,35.579 21.68,54.96c3.626,16.457 4.919,33.343 3.84,50.16c-6.066,101.408 -93.191,178.698 -194.6,172.632c-17.921,-1.072 -35.588,-4.762 -52.44,-10.952"/>
  <path id="svg_2" fill="#0C6BC3" d="m423.68,247.04c-1.289,21.482 -6.325,42.573 -14.88,62.32c-99.171,-25.938 -204.652,2.863 -276.88,75.6c-17.367,-12.629 -32.394,-28.197 -44.4,-46c87.946,-87.875 215.736,-122.818 336.16,-91.92l0,0z"/>
  <path id="svg_3" fill="#168DE2" d="m145.92,77.92c56.873,-33.932 127.612,-34.605 185.12,-1.76c-88.13,0.724 -174.558,24.35 -250.8,68.56c15.725,-27.589 38.361,-50.61 65.68,-66.8l0,0z"/>
  <path id="svg_4" fill="#74C6FF" d="m373.76,109.6c-12.48,-0.96 -25.04,-1.6 -37.76,-1.6c-98.591,-0.078 -194.786,30.384 -275.36,87.2c3.997,-17.705 10.602,-34.717 19.6,-50.48c76.242,-44.21 162.67,-67.836 250.8,-68.56c15.847,8.926 30.25,20.2 42.72,33.44z"/>
  <path id="svg_5" fill="#003170" d="m398.16,141.92c10.18,17.013 17.504,35.579 21.68,54.96c-126.882,-27.212 -259.075,8.917 -354.48,96.88c-10.596,-31.796 -12.229,-65.897 -4.72,-98.56c80.574,-56.816 176.769,-87.278 275.36,-87.2c12.72,0 25.28,0.64 37.76,1.6c9.291,9.849 17.473,20.687 24.4,32.32l0,0z"/>
  <g id="svg_6">
   <path id="svg_7" fill="#168DE2" d="m419.84,196.88c3.626,16.457 4.919,33.343 3.84,50.16c-120.424,-30.898 -248.214,4.045 -336.16,91.92c-1.92,-2.88 -3.84,-5.84 -5.6,-8.88c-6.846,-11.457 -12.4,-23.638 -16.56,-36.32c95.405,-87.963 227.598,-124.092 354.48,-96.88z"/>
   <path id="svg_8" fill="#168DE2" d="m408.8,309.36c-6.746,15.541 -15.603,30.078 -26.32,43.2c-73.623,-14.578 -149.822,6.211 -205.84,56.16l-0.08,0c-15.902,-5.83 -30.923,-13.826 -44.64,-23.76c72.228,-72.737 177.709,-101.538 276.88,-75.6z"/>
  </g>
  <path id="svg_9" fill="#74C6FF" d="m336,348c15.605,0.008 31.171,1.535 46.48,4.56c-49.68,60.602 -132.266,83.134 -205.84,56.16c43.832,-39.17 100.576,-60.791 159.36,-60.72z"/>
  <g id="svg_13"/>
  <g id="svg_14"/>
  <g id="svg_15"/>
  <g id="svg_16"/>
  <g id="svg_17"/>
  <g id="svg_18"/>
  <g id="svg_19"/>
  <g id="svg_20"/>
  <g id="svg_21"/>
  <g id="svg_22"/>
  <g id="svg_23"/>
  <g id="svg_24"/>
  <g id="svg_25"/>
  <g id="svg_26"/>
  <g id="svg_27"/>
 </g>
</svg>