<?xml version="1.0" encoding="iso-8859-1"?>
<!-- Generator: Adobe Illustrator 19.0.0, SVG Export Plug-In . SVG Version: 6.00 Build 0)  -->
<svg version="1.1" id="Capa_1" xmlns="http://www.w3.org/2000/svg" xmlns:xlink="http://www.w3.org/1999/xlink" x="0px" y="0px"
	 viewBox="0 0 512 512" style="enable-background:new 0 0 512 512;" xml:space="preserve">
<circle style="fill:#CB443A;" cx="256" cy="256" r="256"/>
<g>
	<path style="fill:#DC691C;" d="M21.884,152.444C7.857,184.117,0,219.127,0,256c0,2.022,0.106,4.017,0.15,6.029
		C322.586,238.592,123.136,177.682,21.884,152.444z"/>
	<path style="fill:#DC691C;" d="M70.612,79.563c-12.729,13.365-24.073,28.063-33.686,43.935
		c15.872-0.777,145.699-5.429,236.729,44.226c0,0,35.31,26.483,229.517,26.483h1.271c-3.752-15.13-8.872-29.714-15.183-43.644
		c-181.928-1.236-215.605-26.43-215.605-26.43C206.698,87.614,118.766,80.481,70.612,79.563z"/>
	<path style="fill:#DC691C;" d="M123.586,423.724H62.694C109.621,477.775,178.794,512,256,512c33.96,0,66.348-6.674,96-18.679
		C289.368,432.472,123.586,423.724,123.586,423.724z"/>
	<path style="fill:#DC691C;" d="M511.779,264.828H397.241c-48.154,0.918-134.806,8.051-201.763,44.57
		c0,0-29.572,22.104-182.89,25.918c4.882,14.989,11.061,29.396,18.503,43.034c137.278-5.041,164.396-25.362,164.396-25.362
		c91.03-49.655,219.41-44.023,237.065-44.023h73.931C509.493,294.656,511.267,279.905,511.779,264.828z"/>
	<path style="fill:#DC691C;" d="M421.614,451.143c25.379-21.557,46.468-47.96,61.89-77.798
		C388.228,366.371,259.434,368.004,421.614,451.143z"/>
</g>
<g>
</g>
<g>
</g>
<g>
</g>
<g>
</g>
<g>
</g>
<g>
</g>
<g>
</g>
<g>
</g>
<g>
</g>
<g>
</g>
<g>
</g>
<g>
</g>
<g>
</g>
<g>
</g>
<g>
</g>
</svg>
