<svg height="470pt" viewBox="-59 0 470 470.10643" width="470pt" xmlns="http://www.w3.org/2000/svg"><path d="m246.949219 110.105469h-141.792969c-.746094 6.707031-1.113281 13.453125-1.101562 20.199219v275.800781h144v-275.800781c.007812-6.746094-.359376-13.492188-1.105469-20.199219zm0 0" fill="#ccc"/><path d="m198.101562 15.210938c-13.574218 8.136718-30.523437 8.136718-44.097656 0-27.453125 29.351562-44.535156 56.558593-48.847656 94.894531h141.792969c-4.3125-38.335938-21.390625-65.542969-48.847657-94.894531zm0 0" fill="#b3b3b3"/><path d="m198.101562 15.210938c-3.105468-3.320313-6.257812-6.648438-9.601562-10.039063-3.285156-3.3125-7.757812-5.171875-12.421875-5.171875s-9.136719 1.859375-12.425781 5.171875c-3.367188 3.390625-6.519532 6.71875-9.597656 10.039063 13.558593 8.117187 30.484374 8.117187 44.046874 0zm0 0" fill="#666"/><path d="m40.054688 262.105469h64v144h-64zm0 0" fill="#b3b3b3"/><path d="m40.636719 174.105469c-.375 5.480469-.582031 10.984375-.582031 16.496093v71.503907h64v-71.503907c0-5.511718-.210938-11.015624-.585938-16.496093zm0 0" fill="#808080"/><g fill="#b3b3b3"><path d="m72.054688 70.105469c-18.191407 31.851562-28.929688 67.40625-31.417969 104h62.832031c-2.484375-36.59375-13.226562-72.148438-31.414062-104zm0 0"/><path d="m280.054688 70.105469c-18.191407 31.851562-28.929688 67.40625-31.417969 104h62.832031c-2.484375-36.59375-13.226562-72.148438-31.414062-104zm0 0"/><path d="m248.054688 262.105469h64v144h-64zm0 0"/></g><path d="m248.636719 174.105469c-.375 5.480469-.582031 10.984375-.582031 16.496093v71.503907h64v-71.503907c0-5.511718-.210938-11.015624-.585938-16.496093zm0 0" fill="#808080"/><path d="m104.054688 470.105469h-64l16-64h32zm0 0" fill="#f8cf26"/><path d="m208.054688 470.105469h-64l16-64h32zm0 0" fill="#f29200"/><path d="m312.054688 470.105469h-64l16-64h32zm0 0" fill="#f8cf26"/><path d="m214.949219 222.105469 15.425781 40.105469c16.417969 45.957031 50.765625 83.296874 95.199219 103.488281 11.777343 5.371093 20.792969 15.402343 24.878906 27.6875l1.601563 12.71875h-136zm0 0" fill="#e6e6e6"/><path d="m137.324219 222.105469-15.589844 40.105469c-16.421875 45.957031-50.769531 83.296874-95.199219 103.488281-11.78125 5.371093-20.796875 15.402343-24.882812 27.6875l-1.5976565 12.71875h136.0000005zm0 0" fill="#e6e6e6"/><path d="m200.054688 174.105469 2.222656-1.542969c-3.757813-9.300781-8.277344-18.277344-13.503906-26.839844l-.410157-.671875c-2.507812-4.082031-6.941406-6.585937-11.734375-6.621093-4.789062-.035157-9.261718 2.398437-11.832031 6.445312-5.613281 8.902344-10.453125 18.269531-14.464844 28l1.722657 1.230469c14.53125 9.6875 33.464843 9.6875 48 0zm0 0" fill="#666"/><path d="m202.277344 172.5625-2.222656 1.542969c-14.535157 9.6875-33.46875 9.6875-48 0l-1.722657-1.238281c-9.390625 22.4375-14.246093 46.515624-14.277343 70.839843v162.398438h80v-163.902344c-.035157-23.886719-4.710938-47.539063-13.777344-69.640625zm0 0" fill="#f2f2f2"/><path d="m160.054688 198.105469h32v16h-32zm0 0" fill="#06aae9"/><path d="m168.054688 222.105469h16v16h-16zm0 0" fill="#06aae9"/><path d="m136.054688 406.105469v-56l20.46875-28.65625c4.507812-6.304688 11.78125-10.046875 19.53125-10.046875s15.019531 3.742187 19.527343 10.046875l20.472657 28.65625v56zm0 0" fill="#ccc"/><path d="m168.054688 350.105469h16v88h-16zm0 0" fill="#29485a"/></svg>